<svg xmlns="http://www.w3.org/2000/svg" version="1.1" xmlns:xlink="http://www.w3.org/1999/xlink" width="1000" height="1000"><g clip-path="url(#SvgjsClipPath1020)"><rect width="1000" height="1000" fill="#ffffff"></rect><g transform="matrix(4.5,0,0,4.5,50,50)"><svg xmlns="http://www.w3.org/2000/svg" version="1.1" xmlns:xlink="http://www.w3.org/1999/xlink" width="200" height="200"><svg xmlns="http://www.w3.org/2000/svg" version="1.1" xmlns:xlink="http://www.w3.org/1999/xlink" width="200" height="200"><svg xmlns="http://www.w3.org/2000/svg" version="1.1" xmlns:xlink="http://www.w3.org/1999/xlink" viewBox="0 0 200 200"><rect width="200" height="200" fill="url('#gradient')"></rect><defs><linearGradient id="SvgjsLinearGradient1001" gradientTransform="rotate(266 0.5 0.5)"><stop offset="0%" stop-color="#000000"></stop><stop offset="100%" stop-color="#ffffff"></stop></linearGradient><clipPath id="SvgjsClipPath1020"><rect width="1000" height="1000" x="0" y="0" rx="350" ry="350"></rect></clipPath></defs><g><g fill="#353535" transform="matrix(6.261595824011931,0,0,6.261595824011931,18.190842900758284,144.51932201122366)" stroke="#838282" stroke-width="0.2"><path d="M9.98 0L9.15-2.66L4.45-2.66L3.63 0L-0.03 0L5.19-14.22L8.41-14.22L13.66 0L9.98 0ZM6.80-10.23L5.27-5.30L8.33-5.30L6.80-10.23ZM22.49 0L19.98-5.02L18.13-5.02L18.13 0L14.70 0L14.70-14.22L20.29-14.22Q22.82-14.22 24.25-13.10Q25.67-11.97 25.67-9.92L25.67-9.92Q25.67-8.44 25.07-7.46Q24.47-6.48 23.19-5.88L23.19-5.88L26.16-0.15L26.16 0L22.49 0ZM18.13-11.57L18.13-7.67L20.29-7.67Q21.27-7.67 21.76-8.18Q22.26-8.69 22.26-9.61Q22.26-10.53 21.76-11.05Q21.26-11.57 20.29-11.57L20.29-11.57L18.13-11.57Z"></path></g></g></svg><style>@media (prefers-color-scheme: light) { :root { filter: contrast(1) brightness(1); } }
@media (prefers-color-scheme: dark) { :root { filter: none; } }
</style></svg></svg></g></g></svg>